{
	"asset":{
		"generator":"Khronos glTF Blender I/O v4.1.62",
		"version":"2.0"
	},
	"extensionsUsed":[
		"KHR_materials_clearcoat",
		"KHR_materials_transmission",
		"KHR_materials_specular",
		"KHR_materials_sheen",
		"KHR_materials_ior"
	],
	"scene":0,
	"scenes":[
		{
			"name":"Scene",
			"nodes":[
				1,
				2,
				3,
				4,
				5
			]
		}
	],
	"nodes":[
		{
			"mesh":0,
			"name":"Cylinder",
			"rotation":[
				-0.6598076820373535,
				0,
				0,
				0.7514345645904541
			],
			"scale":[
				0.4202611446380615,
				0.4202611446380615,
				0.4202611446380615
			],
			"translation":[
				0,
				1.0071309804916382,
				0.6945927739143372
			]
		},
		{
			"children":[
				0
			],
			"mesh":1,
			"name":"Cube",
			"translation":[
				0,
				1.5739718675613403,
				0
			]
		},
		{
			"mesh":2,
			"name":"B\u00e9zierCircle",
			"rotation":[
				0.7058902382850647,
				-0.31729426980018616,
				0.041460052132606506,
				0.6319212317466736
			],
			"translation":[
				0.05818292126059532,
				1.6037020683288574,
				0.03362317755818367
			]
		},
		{
			"mesh":3,
			"name":"B\u00e9zierCircle.001",
			"rotation":[
				0.3170396387577057,
				-0.705906867980957,
				0.6320489645004272,
				0.04117569699883461
			],
			"translation":[
				-0.058209992945194244,
				1.6037019491195679,
				0.03357629477977753
			]
		},
		{
			"mesh":4,
			"name":"B\u00e9zierCircle.002",
			"rotation":[
				0.3888508081436157,
				0.3886125087738037,
				-0.5905887484550476,
				0.5907455682754517
			],
			"translation":[
				2.7079135179519653e-05,
				1.6037018299102783,
				-0.06719948351383209
			]
		},
		{
			"mesh":5,
			"name":"B\u00e9zierCircle.003",
			"rotation":[
				0,
				0,
				-0.705915629863739,
				0.7082959413528442
			],
			"translation":[
				0,
				4.647670745849609,
				-1.052681565284729
			]
		}
	],
	"materials":[
		{
			"doubleSided":true,
			"name":"Material.001",
			"pbrMetallicRoughness":{
				"baseColorFactor":[
					0.11972697079181671,
					0.11972697079181671,
					0.11972697079181671,
					1
				],
				"metallicFactor":0,
				"roughnessFactor":0.5
			}
		},
		{
			"doubleSided":true,
			"name":"Material.002",
			"pbrMetallicRoughness":{
				"baseColorFactor":[
					0,
					0.14472517371177673,
					0.8005832433700562,
					1
				],
				"metallicFactor":0,
				"roughnessFactor":0.5
			}
		},
		{
			"doubleSided":true,
			"extensions":{
				"KHR_materials_clearcoat":{
					"clearcoatFactor":0.5090909004211426,
					"clearcoatRoughnessFactor":0.5572726726531982
				},
				"KHR_materials_transmission":{
					"transmissionFactor":0.668181836605072
				},
				"KHR_materials_specular":{
					"specularColorFactor":[
						1.399999976158142,
						1.399999976158142,
						1.399999976158142
					]
				},
				"KHR_materials_sheen":{
					"sheenColorFactor":[
						0.4413161277770996,
						1.0,
						0.42717450857162476
					],
					"sheenRoughnessFactor":0.5
				},
				"KHR_materials_ior":{
					"ior":6.149999618530273
				}
			},
			"name":"Material",
			"pbrMetallicRoughness":{
				"baseColorFactor":[
					0.8738929629325867,
					0.858588695526123,
					1,
					0.5818182229995728
				],
				"metallicFactor":0.800000011920929,
				"roughnessFactor":0.5
			}
		},
		{
			"doubleSided":true,
			"name":"Red",
			"pbrMetallicRoughness":{
				"baseColorFactor":[
					0.8002749681472778,
					0,
					0.0028365047182887793,
					1
				],
				"metallicFactor":0,
				"roughnessFactor":0.5
			}
		},
		{
			"doubleSided":true,
			"name":"Material.003",
			"pbrMetallicRoughness":{
				"baseColorFactor":[
					0.8005914688110352,
					0,
					0.0016744618769735098,
					1
				],
				"metallicFactor":0,
				"roughnessFactor":0.5
			}
		}
	],
	"meshes":[
		{
			"name":"Cylinder",
			"primitives":[
				{
					"attributes":{
						"POSITION":0,
						"NORMAL":1,
						"TEXCOORD_0":2
					},
					"indices":3,
					"material":0
				},
				{
					"attributes":{
						"POSITION":4,
						"NORMAL":5,
						"TEXCOORD_0":6
					},
					"indices":7,
					"material":1
				}
			]
		},
		{
			"name":"Cube",
			"primitives":[
				{
					"attributes":{
						"POSITION":8,
						"NORMAL":9,
						"TEXCOORD_0":10
					},
					"indices":11,
					"material":2
				},
				{
					"attributes":{
						"POSITION":12,
						"NORMAL":13,
						"TEXCOORD_0":14
					},
					"indices":15,
					"material":3
				}
			]
		},
		{
			"name":"B\u00e9zierCircle",
			"primitives":[
				{
					"attributes":{
						"POSITION":16,
						"NORMAL":17,
						"TEXCOORD_0":18
					},
					"indices":19,
					"material":2
				}
			]
		},
		{
			"name":"B\u00e9zierCircle.001",
			"primitives":[
				{
					"attributes":{
						"POSITION":20,
						"NORMAL":21,
						"TEXCOORD_0":22
					},
					"indices":19,
					"material":2
				}
			]
		},
		{
			"name":"B\u00e9zierCircle.002",
			"primitives":[
				{
					"attributes":{
						"POSITION":23,
						"NORMAL":24,
						"TEXCOORD_0":25
					},
					"indices":19,
					"material":2
				}
			]
		},
		{
			"name":"B\u00e9zierCircle.003",
			"primitives":[
				{
					"attributes":{
						"POSITION":26,
						"NORMAL":27,
						"TEXCOORD_0":28
					},
					"indices":29,
					"material":4
				}
			]
		}
	],
	"accessors":[
		{
			"bufferView":0,
			"componentType":5126,
			"count":40849,
			"max":[
				0.9935953617095947,
				4.097176551818848,
				0.9935953617095947
			],
			"min":[
				-0.9935953617095947,
				2.1166951656341553,
				-0.9935951232910156
			],
			"type":"VEC3"
		},
		{
			"bufferView":1,
			"componentType":5126,
			"count":40849,
			"type":"VEC3"
		},
		{
			"bufferView":2,
			"componentType":5126,
			"count":40849,
			"type":"VEC2"
		},
		{
			"bufferView":3,
			"componentType":5123,
			"count":241122,
			"type":"SCALAR"
		},
		{
			"bufferView":4,
			"componentType":5126,
			"count":1930,
			"max":[
				0.6755281686782837,
				3.894775629043579,
				0.675528347492218
			],
			"min":[
				-0.675528347492218,
				3.8868556022644043,
				-0.6755280494689941
			],
			"type":"VEC3"
		},
		{
			"bufferView":5,
			"componentType":5126,
			"count":1930,
			"type":"VEC3"
		},
		{
			"bufferView":6,
			"componentType":5126,
			"count":1930,
			"type":"VEC2"
		},
		{
			"bufferView":7,
			"componentType":5123,
			"count":10782,
			"type":"SCALAR"
		},
		{
			"bufferView":8,
			"componentType":5126,
			"count":4022,
			"max":[
				0.9548977613449097,
				1.673163652420044,
				0.9548977017402649
			],
			"min":[
				-0.9548975825309753,
				-1.4305932521820068,
				-0.9548977613449097
			],
			"type":"VEC3"
		},
		{
			"bufferView":9,
			"componentType":5126,
			"count":4022,
			"type":"VEC3"
		},
		{
			"bufferView":10,
			"componentType":5126,
			"count":4022,
			"type":"VEC2"
		},
		{
			"bufferView":11,
			"componentType":5123,
			"count":23040,
			"type":"SCALAR"
		},
		{
			"bufferView":12,
			"componentType":5126,
			"count":2222,
			"max":[
				0.9538922309875488,
				2.5064523220062256,
				0.9538922309875488
			],
			"min":[
				-0.9538921117782593,
				-0.9422881603240967,
				-0.9538922309875488
			],
			"type":"VEC3"
		},
		{
			"bufferView":13,
			"componentType":5126,
			"count":2222,
			"type":"VEC3"
		},
		{
			"bufferView":14,
			"componentType":5126,
			"count":2222,
			"type":"VEC2"
		},
		{
			"bufferView":15,
			"componentType":5123,
			"count":12288,
			"type":"SCALAR"
		},
		{
			"bufferView":16,
			"componentType":5126,
			"count":1804,
			"max":[
				0.12691088020801544,
				0.10499999672174454,
				2.007229804992676
			],
			"min":[
				-1.0253673791885376,
				-0.10499999672174454,
				-0.09957046806812286
			],
			"type":"VEC3"
		},
		{
			"bufferView":17,
			"componentType":5126,
			"count":1804,
			"type":"VEC3"
		},
		{
			"bufferView":18,
			"componentType":5126,
			"count":1804,
			"type":"VEC2"
		},
		{
			"bufferView":19,
			"componentType":5123,
			"count":9204,
			"type":"SCALAR"
		},
		{
			"bufferView":20,
			"componentType":5126,
			"count":1804,
			"max":[
				0.12691088020801544,
				0.10499999672174454,
				2.007229804992676
			],
			"min":[
				-1.0253673791885376,
				-0.10499999672174454,
				-0.09957046806812286
			],
			"type":"VEC3"
		},
		{
			"bufferView":21,
			"componentType":5126,
			"count":1804,
			"type":"VEC3"
		},
		{
			"bufferView":22,
			"componentType":5126,
			"count":1804,
			"type":"VEC2"
		},
		{
			"bufferView":23,
			"componentType":5126,
			"count":1804,
			"max":[
				0.12691088020801544,
				0.10499999672174454,
				2.007229804992676
			],
			"min":[
				-1.0253673791885376,
				-0.10499999672174454,
				-0.09957046806812286
			],
			"type":"VEC3"
		},
		{
			"bufferView":24,
			"componentType":5126,
			"count":1804,
			"type":"VEC3"
		},
		{
			"bufferView":25,
			"componentType":5126,
			"count":1804,
			"type":"VEC2"
		},
		{
			"bufferView":26,
			"componentType":5126,
			"count":1804,
			"max":[
				4.571920871734619,
				0.20000000298023224,
				1.3208773136138916
			],
			"min":[
				-22.71932601928711,
				-0.20000000298023224,
				-43.377105712890625
			],
			"type":"VEC3"
		},
		{
			"bufferView":27,
			"componentType":5126,
			"count":1804,
			"type":"VEC3"
		},
		{
			"bufferView":28,
			"componentType":5126,
			"count":1804,
			"type":"VEC2"
		},
		{
			"bufferView":29,
			"componentType":5123,
			"count":9204,
			"type":"SCALAR"
		}
	],
	"bufferViews":[
		{
			"buffer":0,
			"byteLength":490188,
			"byteOffset":0,
			"target":34962
		},
		{
			"buffer":0,
			"byteLength":490188,
			"byteOffset":490188,
			"target":34962
		},
		{
			"buffer":0,
			"byteLength":326792,
			"byteOffset":980376,
			"target":34962
		},
		{
			"buffer":0,
			"byteLength":482244,
			"byteOffset":1307168,
			"target":34963
		},
		{
			"buffer":0,
			"byteLength":23160,
			"byteOffset":1789412,
			"target":34962
		},
		{
			"buffer":0,
			"byteLength":23160,
			"byteOffset":1812572,
			"target":34962
		},
		{
			"buffer":0,
			"byteLength":15440,
			"byteOffset":1835732,
			"target":34962
		},
		{
			"buffer":0,
			"byteLength":21564,
			"byteOffset":1851172,
			"target":34963
		},
		{
			"buffer":0,
			"byteLength":48264,
			"byteOffset":1872736,
			"target":34962
		},
		{
			"buffer":0,
			"byteLength":48264,
			"byteOffset":1921000,
			"target":34962
		},
		{
			"buffer":0,
			"byteLength":32176,
			"byteOffset":1969264,
			"target":34962
		},
		{
			"buffer":0,
			"byteLength":46080,
			"byteOffset":2001440,
			"target":34963
		},
		{
			"buffer":0,
			"byteLength":26664,
			"byteOffset":2047520,
			"target":34962
		},
		{
			"buffer":0,
			"byteLength":26664,
			"byteOffset":2074184,
			"target":34962
		},
		{
			"buffer":0,
			"byteLength":17776,
			"byteOffset":2100848,
			"target":34962
		},
		{
			"buffer":0,
			"byteLength":24576,
			"byteOffset":2118624,
			"target":34963
		},
		{
			"buffer":0,
			"byteLength":21648,
			"byteOffset":2143200,
			"target":34962
		},
		{
			"buffer":0,
			"byteLength":21648,
			"byteOffset":2164848,
			"target":34962
		},
		{
			"buffer":0,
			"byteLength":14432,
			"byteOffset":2186496,
			"target":34962
		},
		{
			"buffer":0,
			"byteLength":18408,
			"byteOffset":2200928,
			"target":34963
		},
		{
			"buffer":0,
			"byteLength":21648,
			"byteOffset":2219336,
			"target":34962
		},
		{
			"buffer":0,
			"byteLength":21648,
			"byteOffset":2240984,
			"target":34962
		},
		{
			"buffer":0,
			"byteLength":14432,
			"byteOffset":2262632,
			"target":34962
		},
		{
			"buffer":0,
			"byteLength":21648,
			"byteOffset":2277064,
			"target":34962
		},
		{
			"buffer":0,
			"byteLength":21648,
			"byteOffset":2298712,
			"target":34962
		},
		{
			"buffer":0,
			"byteLength":14432,
			"byteOffset":2320360,
			"target":34962
		},
		{
			"buffer":0,
			"byteLength":21648,
			"byteOffset":2334792,
			"target":34962
		},
		{
			"buffer":0,
			"byteLength":21648,
			"byteOffset":2356440,
			"target":34962
		},
		{
			"buffer":0,
			"byteLength":14432,
			"byteOffset":2378088,
			"target":34962
		},
		{
			"buffer":0,
			"byteLength":18408,
			"byteOffset":2392520,
			"target":34963
		}
	],
	"buffers":[
		{
			"byteLength":2410928,
			"uri":"rakettmedlinje.bin"
		}
	]
}
