{
	"asset":{
		"generator":"Khronos glTF Blender I/O v4.1.62",
		"version":"2.0"
	},
	"extensionsUsed":[
		"KHR_materials_clearcoat",
		"KHR_materials_transmission",
		"KHR_materials_specular",
		"KHR_materials_sheen",
		"KHR_materials_ior"
	],
	"scene":0,
	"scenes":[
		{
			"name":"Scene",
			"nodes":[
				1,
				2,
				3,
				4
			]
		}
	],
	"nodes":[
		{
			"mesh":0,
			"name":"Cylinder",
			"rotation":[
				-0.6598076820373535,
				0,
				0,
				0.7514345645904541
			],
			"scale":[
				0.4202611446380615,
				0.4202611446380615,
				0.4202611446380615
			],
			"translation":[
				0,
				1.0071309804916382,
				0.6945927739143372
			]
		},
		{
			"children":[
				0
			],
			"mesh":1,
			"name":"Cube",
			"translation":[
				0,
				1.5739718675613403,
				0
			]
		},
		{
			"mesh":2,
			"name":"B\u00e9zierCircle",
			"rotation":[
				0.7058902382850647,
				-0.31729426980018616,
				0.041460052132606506,
				0.6319212317466736
			],
			"translation":[
				0.05818292126059532,
				1.6037020683288574,
				0.03362317755818367
			]
		},
		{
			"mesh":3,
			"name":"B\u00e9zierCircle.001",
			"rotation":[
				0.3170396387577057,
				-0.705906867980957,
				0.6320489645004272,
				0.04117569699883461
			],
			"translation":[
				-0.058209992945194244,
				1.6037019491195679,
				0.03357629477977753
			]
		},
		{
			"mesh":4,
			"name":"B\u00e9zierCircle.002",
			"rotation":[
				0.3888508081436157,
				0.3886125087738037,
				-0.5905887484550476,
				0.5907455682754517
			],
			"translation":[
				2.7079135179519653e-05,
				1.6037018299102783,
				-0.06719948351383209
			]
		}
	],
	"materials":[
		{
			"doubleSided":true,
			"name":"Material.001",
			"pbrMetallicRoughness":{
				"baseColorFactor":[
					0.11972697079181671,
					0.11972697079181671,
					0.11972697079181671,
					1
				],
				"metallicFactor":0,
				"roughnessFactor":0.5
			}
		},
		{
			"doubleSided":true,
			"name":"Material.002",
			"pbrMetallicRoughness":{
				"baseColorFactor":[
					0,
					0.14472517371177673,
					0.8005832433700562,
					1
				],
				"metallicFactor":0,
				"roughnessFactor":0.5
			}
		},
		{
			"doubleSided":true,
			"extensions":{
				"KHR_materials_clearcoat":{
					"clearcoatFactor":0.5090909004211426,
					"clearcoatRoughnessFactor":0.5572726726531982
				},
				"KHR_materials_transmission":{
					"transmissionFactor":0.668181836605072
				},
				"KHR_materials_specular":{
					"specularColorFactor":[
						1.399999976158142,
						1.399999976158142,
						1.399999976158142
					]
				},
				"KHR_materials_sheen":{
					"sheenColorFactor":[
						0.4413161277770996,
						1.0,
						0.42717450857162476
					],
					"sheenRoughnessFactor":0.5
				},
				"KHR_materials_ior":{
					"ior":6.149999618530273
				}
			},
			"name":"Material",
			"pbrMetallicRoughness":{
				"baseColorFactor":[
					0.2823055386543274,
					0.2775006592273712,
					0.32157137989997864,
					0.5818182229995728
				],
				"metallicFactor":0.800000011920929,
				"roughnessFactor":0.5
			}
		},
		{
			"doubleSided":true,
			"name":"Red",
			"pbrMetallicRoughness":{
				"baseColorFactor":[
					0.8002749681472778,
					0,
					0.0028365047182887793,
					1
				],
				"metallicFactor":0,
				"roughnessFactor":0.5
			}
		}
	],
	"meshes":[
		{
			"name":"Cylinder",
			"primitives":[
				{
					"attributes":{
						"POSITION":0,
						"NORMAL":1,
						"TEXCOORD_0":2
					},
					"indices":3,
					"material":0
				},
				{
					"attributes":{
						"POSITION":4,
						"NORMAL":5,
						"TEXCOORD_0":6
					},
					"indices":7,
					"material":1
				}
			]
		},
		{
			"name":"Cube",
			"primitives":[
				{
					"attributes":{
						"POSITION":8,
						"NORMAL":9,
						"TEXCOORD_0":10
					},
					"indices":11,
					"material":2
				},
				{
					"attributes":{
						"POSITION":12,
						"NORMAL":13,
						"TEXCOORD_0":14
					},
					"indices":15,
					"material":3
				}
			]
		},
		{
			"name":"B\u00e9zierCircle",
			"primitives":[
				{
					"attributes":{
						"POSITION":16,
						"NORMAL":17,
						"TEXCOORD_0":18
					},
					"indices":19,
					"material":2
				}
			]
		},
		{
			"name":"B\u00e9zierCircle.001",
			"primitives":[
				{
					"attributes":{
						"POSITION":20,
						"NORMAL":21,
						"TEXCOORD_0":22
					},
					"indices":19,
					"material":2
				}
			]
		},
		{
			"name":"B\u00e9zierCircle.002",
			"primitives":[
				{
					"attributes":{
						"POSITION":23,
						"NORMAL":24,
						"TEXCOORD_0":25
					},
					"indices":19,
					"material":2
				}
			]
		}
	],
	"accessors":[
		{
			"bufferView":0,
			"componentType":5126,
			"count":40849,
			"max":[
				0.9935953617095947,
				4.097176551818848,
				0.9935953617095947
			],
			"min":[
				-0.9935953617095947,
				2.1166951656341553,
				-0.9935951232910156
			],
			"type":"VEC3"
		},
		{
			"bufferView":1,
			"componentType":5126,
			"count":40849,
			"type":"VEC3"
		},
		{
			"bufferView":2,
			"componentType":5126,
			"count":40849,
			"type":"VEC2"
		},
		{
			"bufferView":3,
			"componentType":5123,
			"count":241122,
			"type":"SCALAR"
		},
		{
			"bufferView":4,
			"componentType":5126,
			"count":1930,
			"max":[
				0.6755281686782837,
				3.894775629043579,
				0.675528347492218
			],
			"min":[
				-0.675528347492218,
				3.8868556022644043,
				-0.6755280494689941
			],
			"type":"VEC3"
		},
		{
			"bufferView":5,
			"componentType":5126,
			"count":1930,
			"type":"VEC3"
		},
		{
			"bufferView":6,
			"componentType":5126,
			"count":1930,
			"type":"VEC2"
		},
		{
			"bufferView":7,
			"componentType":5123,
			"count":10782,
			"type":"SCALAR"
		},
		{
			"bufferView":8,
			"componentType":5126,
			"count":312,
			"max":[
				0.9771044850349426,
				1.673647403717041,
				0.9771045446395874
			],
			"min":[
				-0.9771044254302979,
				-1.4894131422042847,
				-0.9771044850349426
			],
			"type":"VEC3"
		},
		{
			"bufferView":9,
			"componentType":5126,
			"count":312,
			"type":"VEC3"
		},
		{
			"bufferView":10,
			"componentType":5126,
			"count":312,
			"type":"VEC2"
		},
		{
			"bufferView":11,
			"componentType":5123,
			"count":1440,
			"type":"SCALAR"
		},
		{
			"bufferView":12,
			"componentType":5126,
			"count":186,
			"max":[
				0.9760755896568298,
				2.5434374809265137,
				0.9760756492614746
			],
			"min":[
				-0.9760755300521851,
				-0.9480882883071899,
				-0.9760755896568298
			],
			"type":"VEC3"
		},
		{
			"bufferView":13,
			"componentType":5126,
			"count":186,
			"type":"VEC3"
		},
		{
			"bufferView":14,
			"componentType":5126,
			"count":186,
			"type":"VEC2"
		},
		{
			"bufferView":15,
			"componentType":5123,
			"count":768,
			"type":"SCALAR"
		},
		{
			"bufferView":16,
			"componentType":5126,
			"count":1804,
			"max":[
				0.12691088020801544,
				0.10499999672174454,
				2.007229804992676
			],
			"min":[
				-1.0253673791885376,
				-0.10499999672174454,
				-0.09957046806812286
			],
			"type":"VEC3"
		},
		{
			"bufferView":17,
			"componentType":5126,
			"count":1804,
			"type":"VEC3"
		},
		{
			"bufferView":18,
			"componentType":5126,
			"count":1804,
			"type":"VEC2"
		},
		{
			"bufferView":19,
			"componentType":5123,
			"count":9204,
			"type":"SCALAR"
		},
		{
			"bufferView":20,
			"componentType":5126,
			"count":1804,
			"max":[
				0.12691088020801544,
				0.10499999672174454,
				2.007229804992676
			],
			"min":[
				-1.0253673791885376,
				-0.10499999672174454,
				-0.09957046806812286
			],
			"type":"VEC3"
		},
		{
			"bufferView":21,
			"componentType":5126,
			"count":1804,
			"type":"VEC3"
		},
		{
			"bufferView":22,
			"componentType":5126,
			"count":1804,
			"type":"VEC2"
		},
		{
			"bufferView":23,
			"componentType":5126,
			"count":1804,
			"max":[
				0.12691088020801544,
				0.10499999672174454,
				2.007229804992676
			],
			"min":[
				-1.0253673791885376,
				-0.10499999672174454,
				-0.09957046806812286
			],
			"type":"VEC3"
		},
		{
			"bufferView":24,
			"componentType":5126,
			"count":1804,
			"type":"VEC3"
		},
		{
			"bufferView":25,
			"componentType":5126,
			"count":1804,
			"type":"VEC2"
		}
	],
	"bufferViews":[
		{
			"buffer":0,
			"byteLength":490188,
			"byteOffset":0,
			"target":34962
		},
		{
			"buffer":0,
			"byteLength":490188,
			"byteOffset":490188,
			"target":34962
		},
		{
			"buffer":0,
			"byteLength":326792,
			"byteOffset":980376,
			"target":34962
		},
		{
			"buffer":0,
			"byteLength":482244,
			"byteOffset":1307168,
			"target":34963
		},
		{
			"buffer":0,
			"byteLength":23160,
			"byteOffset":1789412,
			"target":34962
		},
		{
			"buffer":0,
			"byteLength":23160,
			"byteOffset":1812572,
			"target":34962
		},
		{
			"buffer":0,
			"byteLength":15440,
			"byteOffset":1835732,
			"target":34962
		},
		{
			"buffer":0,
			"byteLength":21564,
			"byteOffset":1851172,
			"target":34963
		},
		{
			"buffer":0,
			"byteLength":3744,
			"byteOffset":1872736,
			"target":34962
		},
		{
			"buffer":0,
			"byteLength":3744,
			"byteOffset":1876480,
			"target":34962
		},
		{
			"buffer":0,
			"byteLength":2496,
			"byteOffset":1880224,
			"target":34962
		},
		{
			"buffer":0,
			"byteLength":2880,
			"byteOffset":1882720,
			"target":34963
		},
		{
			"buffer":0,
			"byteLength":2232,
			"byteOffset":1885600,
			"target":34962
		},
		{
			"buffer":0,
			"byteLength":2232,
			"byteOffset":1887832,
			"target":34962
		},
		{
			"buffer":0,
			"byteLength":1488,
			"byteOffset":1890064,
			"target":34962
		},
		{
			"buffer":0,
			"byteLength":1536,
			"byteOffset":1891552,
			"target":34963
		},
		{
			"buffer":0,
			"byteLength":21648,
			"byteOffset":1893088,
			"target":34962
		},
		{
			"buffer":0,
			"byteLength":21648,
			"byteOffset":1914736,
			"target":34962
		},
		{
			"buffer":0,
			"byteLength":14432,
			"byteOffset":1936384,
			"target":34962
		},
		{
			"buffer":0,
			"byteLength":18408,
			"byteOffset":1950816,
			"target":34963
		},
		{
			"buffer":0,
			"byteLength":21648,
			"byteOffset":1969224,
			"target":34962
		},
		{
			"buffer":0,
			"byteLength":21648,
			"byteOffset":1990872,
			"target":34962
		},
		{
			"buffer":0,
			"byteLength":14432,
			"byteOffset":2012520,
			"target":34962
		},
		{
			"buffer":0,
			"byteLength":21648,
			"byteOffset":2026952,
			"target":34962
		},
		{
			"buffer":0,
			"byteLength":21648,
			"byteOffset":2048600,
			"target":34962
		},
		{
			"buffer":0,
			"byteLength":14432,
			"byteOffset":2070248,
			"target":34962
		}
	],
	"buffers":[
		{
			"byteLength":2084680,
			"uri":"rakett3.bin"
		}
	]
}
